<svg xmlns="http://www.w3.org/2000/svg" viewBox="0 0 127 127"><defs><style>.prefix__cls-2{fill:none;stroke:#000;stroke-miterlimit:10}</style></defs><g id="prefix__Layer_2" data-name="Layer 2"><g id="prefix__Layer_1-2" data-name="Layer 1"><circle cx="63.5" cy="63.5" r="63.5" fill="transparent"/><path class="prefix__cls-2" d="M80.5 107.5h-34M63.5 107.5V78.52M80.5 60.68c0 10.08-7.5 18.25-16.74 18.25S47 70.76 47 60.68"/><path class="prefix__cls-2" d="M77.41 61.35c0 8-6.23 14.49-13.91 14.49s-13.91-6.48-13.91-14.49L50.11 34c0-8 6.22-14.49 13.91-14.49S77.92 26 77.92 34zM50.11 33.99h8.75M69.17 33.99h8.75M49.59 38.28h8.76M68.65 38.28h8.76M50.11 42.57h8.75M69.17 42.57h8.75"/></g></g></svg>