<svg xmlns="http://www.w3.org/2000/svg" viewBox="0 0 127 127"><defs><style>.prefix__cls-2{fill:none;stroke:#000;stroke-miterlimit:10}</style></defs><g id="prefix__Layer_2" data-name="Layer 2"><g id="prefix__Layer_1-2" data-name="Layer 1"><circle cx="63.5" cy="63.5" r="63.5" fill="transparent"/><path class="prefix__cls-2" d="M35.54 49.35H28.6a2.26 2.26 0 00-2.17 2.33v23.17a2.25 2.25 0 002.17 2.32h6.92a2.13 2.13 0 011.7.87l21.45 28.59a2.16 2.16 0 003.87-1.46V21.94a2.15 2.15 0 00-3.85-1.48l-21.47 28a2.13 2.13 0 01-1.68.89zM72.05 38.5a46.23 46.23 0 010 50.21M79 29a61.8 61.8 0 010 67.17M87.65 19.5a80.57 80.57 0 010 87.53M21 26.5l85 74"/></g></g></svg>