<svg xmlns="http://www.w3.org/2000/svg" viewBox="0 0 127 127"><defs><style>.cls-1{fill:#efeaea;}.cls-2{fill:none;stroke:#000;stroke-miterlimit:10;}</style></defs><g id="Layer_2" data-name="Layer 2"><g id="Layer_1-2" data-name="Layer 1"><circle class="cls-1" cx="63.5" cy="63.5" r="63.5"/><path class="cls-2" d="M18.16,60.16l2.3,14.56a4.76,4.76,0,0,0,4.71,4H37a3.93,3.93,0,0,0,3.88-3.32l2.19-10.89a1.77,1.77,0,0,1,1.34-1.38,84.76,84.76,0,0,1,18.78-2A101.9,101.9,0,0,1,82.64,63.2a1.66,1.66,0,0,1,1.3,1.29L86,74.72a4.78,4.78,0,0,0,4.72,4h11.8a3.94,3.94,0,0,0,3.89-3.32l2.41-15.27V60c0-6.48-20.3-11.74-45.34-11.74S18.16,53.51,18.16,60v.33"/></g></g></svg>